<mxfile host="app.diagrams.net" modified="2021-09-19T08:59:44.225Z" agent="5.0 (Windows)" etag="SPwfYtqvn77PmBUdSdZ_" version="15.0.6" type="github">
  <diagram name="Page-1" id="38b20595-45e3-9b7f-d5ca-b57f44c5b66d">
    <mxGraphModel dx="2448" dy="1670" grid="1" gridSize="10" guides="1" tooltips="1" connect="1" arrows="1" fold="1" page="1" pageScale="1" pageWidth="1100" pageHeight="850" background="none" math="0" shadow="0">
      <root>
        <mxCell id="0" />
        <mxCell id="1" parent="0" />
        <mxCell id="tL9BE4iQZPtA8iv1WVT4-5" value="" style="verticalLabelPosition=bottom;html=1;verticalAlign=top;align=center;shape=mxgraph.floorplan.doorLeft;aspect=fixed;rotation=-180;" vertex="1" parent="1">
          <mxGeometry x="228" y="103" width="80" height="85" as="geometry" />
        </mxCell>
        <mxCell id="tL9BE4iQZPtA8iv1WVT4-8" value="" style="verticalLabelPosition=bottom;html=1;verticalAlign=top;align=center;shape=mxgraph.floorplan.wallU;fillColor=#000000;" vertex="1" parent="1">
          <mxGeometry x="-42" y="-42" width="360" height="230" as="geometry" />
        </mxCell>
        <mxCell id="tL9BE4iQZPtA8iv1WVT4-11" value="" style="verticalLabelPosition=bottom;html=1;verticalAlign=top;align=center;shape=mxgraph.floorplan.wall;fillColor=#000000;" vertex="1" parent="1">
          <mxGeometry x="-32" y="178" width="260" height="10" as="geometry" />
        </mxCell>
        <mxCell id="tL9BE4iQZPtA8iv1WVT4-13" value="" style="verticalLabelPosition=bottom;html=1;verticalAlign=top;align=center;shape=mxgraph.floorplan.bed_single;rotation=90;" vertex="1" parent="1">
          <mxGeometry x="125" y="-90" width="124" height="240" as="geometry" />
        </mxCell>
        <mxCell id="tL9BE4iQZPtA8iv1WVT4-14" value="" style="verticalLabelPosition=bottom;html=1;verticalAlign=top;align=center;shape=mxgraph.floorplan.doorRevolving;aspect=fixed;" vertex="1" parent="1">
          <mxGeometry x="-22" y="-32" width="18.82" height="20" as="geometry" />
        </mxCell>
        <mxCell id="tL9BE4iQZPtA8iv1WVT4-15" value="" style="verticalLabelPosition=bottom;html=1;verticalAlign=top;align=center;shape=mxgraph.floorplan.dresser;rotation=-90;" vertex="1" parent="1">
          <mxGeometry x="-50.00000000000001" y="96" width="100" height="65" as="geometry" />
        </mxCell>
        <mxCell id="tL9BE4iQZPtA8iv1WVT4-17" value="" style="verticalLabelPosition=bottom;html=1;verticalAlign=top;align=center;shape=mxgraph.floorplan.doorLeft;aspect=fixed;rotation=-180;" vertex="1" parent="1">
          <mxGeometry x="780" y="103" width="80" height="85" as="geometry" />
        </mxCell>
        <mxCell id="tL9BE4iQZPtA8iv1WVT4-18" value="" style="verticalLabelPosition=bottom;html=1;verticalAlign=top;align=center;shape=mxgraph.floorplan.wallU;fillColor=#000000;" vertex="1" parent="1">
          <mxGeometry x="510" y="-42" width="360" height="230" as="geometry" />
        </mxCell>
        <mxCell id="tL9BE4iQZPtA8iv1WVT4-19" value="" style="verticalLabelPosition=bottom;html=1;verticalAlign=top;align=center;shape=mxgraph.floorplan.wall;fillColor=#000000;" vertex="1" parent="1">
          <mxGeometry x="520" y="178" width="260" height="10" as="geometry" />
        </mxCell>
        <mxCell id="tL9BE4iQZPtA8iv1WVT4-21" value="" style="verticalLabelPosition=bottom;html=1;verticalAlign=top;align=center;shape=mxgraph.floorplan.doorRevolving;aspect=fixed;" vertex="1" parent="1">
          <mxGeometry x="530" y="-32" width="18.82" height="20" as="geometry" />
        </mxCell>
        <mxCell id="tL9BE4iQZPtA8iv1WVT4-22" value="" style="verticalLabelPosition=bottom;html=1;verticalAlign=top;align=center;shape=mxgraph.floorplan.dresser;rotation=0;" vertex="1" parent="1">
          <mxGeometry x="760" y="-34" width="100" height="65" as="geometry" />
        </mxCell>
        <mxCell id="tL9BE4iQZPtA8iv1WVT4-23" value="" style="verticalLabelPosition=bottom;html=1;verticalAlign=top;align=center;shape=mxgraph.floorplan.bed_double;rotation=-90;" vertex="1" parent="1">
          <mxGeometry x="545.5" y="-34" width="187" height="239" as="geometry" />
        </mxCell>
        <mxCell id="tL9BE4iQZPtA8iv1WVT4-24" value="" style="endArrow=classic;startArrow=classic;html=1;" edge="1" parent="1">
          <mxGeometry width="50" height="50" relative="1" as="geometry">
            <mxPoint x="-42" y="220" as="sourcePoint" />
            <mxPoint x="318" y="220" as="targetPoint" />
          </mxGeometry>
        </mxCell>
        <mxCell id="tL9BE4iQZPtA8iv1WVT4-25" value="" style="endArrow=classic;startArrow=classic;html=1;" edge="1" parent="1">
          <mxGeometry width="50" height="50" relative="1" as="geometry">
            <mxPoint x="-42" y="204" as="sourcePoint" />
            <mxPoint x="230" y="204" as="targetPoint" />
          </mxGeometry>
        </mxCell>
        <mxCell id="tL9BE4iQZPtA8iv1WVT4-26" value="" style="endArrow=classic;startArrow=classic;html=1;" edge="1" parent="1">
          <mxGeometry width="50" height="50" relative="1" as="geometry">
            <mxPoint x="350" y="-42" as="sourcePoint" />
            <mxPoint x="350" y="188" as="targetPoint" />
          </mxGeometry>
        </mxCell>
        <mxCell id="tL9BE4iQZPtA8iv1WVT4-27" value="" style="endArrow=classic;startArrow=classic;html=1;" edge="1" parent="1">
          <mxGeometry width="50" height="50" relative="1" as="geometry">
            <mxPoint x="330" y="-45" as="sourcePoint" />
            <mxPoint x="330" y="105" as="targetPoint" />
          </mxGeometry>
        </mxCell>
        <mxCell id="tL9BE4iQZPtA8iv1WVT4-28" value="" style="verticalLabelPosition=bottom;html=1;verticalAlign=top;align=center;shape=mxgraph.floorplan.spiral_stairs;" vertex="1" parent="1">
          <mxGeometry x="50" y="325" width="200" height="200" as="geometry" />
        </mxCell>
        <mxCell id="tL9BE4iQZPtA8iv1WVT4-29" value="" style="verticalLabelPosition=bottom;html=1;verticalAlign=top;align=center;shape=mxgraph.floorplan.plant;" vertex="1" parent="1">
          <mxGeometry x="360" y="320" width="47" height="51" as="geometry" />
        </mxCell>
        <mxCell id="tL9BE4iQZPtA8iv1WVT4-30" value="" style="verticalLabelPosition=bottom;html=1;verticalAlign=top;align=center;shape=mxgraph.floorplan.plant;" vertex="1" parent="1">
          <mxGeometry x="380" y="425" width="47" height="51" as="geometry" />
        </mxCell>
        <mxCell id="tL9BE4iQZPtA8iv1WVT4-31" value="" style="verticalLabelPosition=bottom;html=1;verticalAlign=top;align=center;shape=mxgraph.floorplan.plant;" vertex="1" parent="1">
          <mxGeometry x="430" y="370" width="47" height="51" as="geometry" />
        </mxCell>
        <mxCell id="tL9BE4iQZPtA8iv1WVT4-32" value="/" style="verticalLabelPosition=bottom;html=1;verticalAlign=top;align=center;shape=mxgraph.floorplan.piano;" vertex="1" parent="1">
          <mxGeometry x="240" y="550" width="135" height="143" as="geometry" />
        </mxCell>
        <mxCell id="tL9BE4iQZPtA8iv1WVT4-33" value="" style="verticalLabelPosition=bottom;html=1;verticalAlign=top;align=center;shape=mxgraph.floorplan.couch;rotation=90;" vertex="1" parent="1">
          <mxGeometry x="850" y="280" width="150" height="80" as="geometry" />
        </mxCell>
        <mxCell id="tL9BE4iQZPtA8iv1WVT4-34" value="" style="verticalLabelPosition=bottom;html=1;verticalAlign=top;align=center;shape=mxgraph.floorplan.office_chair;shadow=0;" vertex="1" parent="1">
          <mxGeometry x="600.5" y="525" width="40" height="43" as="geometry" />
        </mxCell>
        <mxCell id="tL9BE4iQZPtA8iv1WVT4-35" value="" style="verticalLabelPosition=bottom;html=1;verticalAlign=top;align=center;shape=mxgraph.floorplan.office_chair;shadow=0;direction=west;" vertex="1" parent="1">
          <mxGeometry x="600.5" y="622" width="40" height="43" as="geometry" />
        </mxCell>
        <mxCell id="tL9BE4iQZPtA8iv1WVT4-36" value="" style="verticalLabelPosition=bottom;html=1;verticalAlign=top;align=center;shape=mxgraph.floorplan.office_chair;shadow=0;direction=north;" vertex="1" parent="1">
          <mxGeometry x="550.5" y="575" width="43" height="40" as="geometry" />
        </mxCell>
        <mxCell id="tL9BE4iQZPtA8iv1WVT4-37" value="" style="verticalLabelPosition=bottom;html=1;verticalAlign=top;align=center;shape=mxgraph.floorplan.office_chair;shadow=0;direction=south" vertex="1" parent="1">
          <mxGeometry x="707.5" y="575" width="43" height="40" as="geometry" />
        </mxCell>
        <mxCell id="tL9BE4iQZPtA8iv1WVT4-38" value="" style="verticalLabelPosition=bottom;html=1;verticalAlign=top;align=center;shape=mxgraph.floorplan.office_chair;shadow=0;" vertex="1" parent="1">
          <mxGeometry x="660.5" y="525" width="40" height="43" as="geometry" />
        </mxCell>
        <mxCell id="tL9BE4iQZPtA8iv1WVT4-39" value="" style="verticalLabelPosition=bottom;html=1;verticalAlign=top;align=center;shape=mxgraph.floorplan.office_chair;shadow=0;direction=west;" vertex="1" parent="1">
          <mxGeometry x="660.5" y="622" width="40" height="43" as="geometry" />
        </mxCell>
        <mxCell id="tL9BE4iQZPtA8iv1WVT4-40" value="" style="shape=rect;shadow=0;" vertex="1" parent="1">
          <mxGeometry x="570.5" y="545" width="160" height="100" as="geometry" />
        </mxCell>
        <mxCell id="tL9BE4iQZPtA8iv1WVT4-41" value="" style="verticalLabelPosition=bottom;html=1;verticalAlign=top;align=center;shape=mxgraph.floorplan.dresser;rotation=-90;" vertex="1" parent="1">
          <mxGeometry x="-80" y="340" width="100" height="65" as="geometry" />
        </mxCell>
      </root>
    </mxGraphModel>
  </diagram>
</mxfile>
